<svg class="svg-obj" width="342.6" height="94.403" viewBox="0 0 342.6 94.403" xmlns="http://www.w3.org/2000/svg"><g class ="animation" id="svgGroup" stroke-linecap="round" fill-rule="evenodd" font-size="9pt" stroke="#000" stroke-width="0.25mm" fill="none" style="stroke:#000;stroke-width:0.25mm;fill:#000"><path class="path" d="M 43.4 79.602 L 43.6 76.402 A 60.924 60.924 0 0 0 43.554 73.924 Q 43.343 68.768 42.172 67.954 A 0.811 0.811 0 0 0 41.7 67.802 Q 39.8 67.802 36.5 72.802 A 215.576 215.576 0 0 1 29.873 82.265 A 235.796 235.796 0 0 1 29.4 82.902 Q 26.512 86.779 23.97 87.708 A 4.552 4.552 0 0 1 22.4 88.002 A 1.779 1.779 0 0 1 21.434 87.639 Q 19.718 86.477 16.9 81.602 Q 13.2 75.202 8.8 68.902 Q 5.734 64.512 3.153 63.181 A 4.699 4.699 0 0 0 1 62.602 Q 0.207 62.602 0.043 61.972 A 1.473 1.473 0 0 1 0 61.602 A 4.916 4.916 0 0 1 0.418 59.816 Q 1.781 56.433 7.6 50.002 A 81.136 81.136 0 0 1 10.51 46.936 Q 14.711 42.756 17.235 41.851 A 3.789 3.789 0 0 1 18.5 41.602 Q 21.221 41.602 26.118 48.673 A 84.952 84.952 0 0 1 28.3 52.002 A 124.835 124.835 0 0 0 30.497 55.404 Q 35.195 62.402 37 62.402 Q 39.2 62.402 45.9 54.202 A 57.657 57.657 0 0 1 48.602 51.107 Q 52.839 46.62 55.729 46.077 A 4.17 4.17 0 0 1 56.5 46.002 A 7.732 7.732 0 0 1 58.945 46.368 A 6.126 6.126 0 0 1 62.3 49.102 Q 64.2 52.202 64.5 55.802 Q 64.8 59.402 65.2 62.502 A 12.489 12.489 0 0 0 65.374 63.536 Q 65.82 65.602 66.8 65.602 A 2.239 2.239 0 0 0 67.866 65.197 Q 70.148 63.802 75.493 57.595 A 189.407 189.407 0 0 0 77.1 55.702 A 90.354 90.354 0 0 1 80.054 52.337 Q 86.113 45.802 89.2 45.802 Q 92.625 45.802 99.775 54.182 A 120.617 120.617 0 0 1 103.2 58.402 A 38.542 38.542 0 0 0 109.279 64.772 A 46.513 46.513 0 0 0 112.3 67.102 A 34.628 34.628 0 0 0 115.088 68.899 Q 117.968 70.55 120.217 70.905 A 7.595 7.595 0 0 0 121.4 71.002 Q 125 71.002 128.4 69.802 A 26.742 26.742 0 0 1 130.619 69.119 Q 131.716 68.836 132.684 68.708 A 11.583 11.583 0 0 1 134.2 68.602 A 5.326 5.326 0 0 1 135.046 68.663 Q 136.529 68.903 136.597 70.086 A 2.02 2.02 0 0 1 136.6 70.202 A 1.703 1.703 0 0 1 136.156 71.35 A 2.464 2.464 0 0 1 135.9 71.602 A 24.995 24.995 0 0 0 135.567 71.894 Q 134.694 72.671 132.5 74.702 Q 130.196 76.836 128.62 78.168 A 52.428 52.428 0 0 1 128.1 78.602 A 316.147 316.147 0 0 1 127.163 79.371 Q 126.106 80.234 124.676 81.39 A 1193.39 1193.39 0 0 1 123.3 82.502 Q 120.2 85.002 118 86.402 Q 112 90.002 106.7 90.002 A 11.626 11.626 0 0 1 102.399 89.111 Q 99.094 87.796 95.395 84.544 A 41.911 41.911 0 0 1 94.9 84.102 Q 88.4 78.202 83.7 72.302 A 52.013 52.013 0 0 0 82.026 70.297 Q 78.588 66.402 76.8 66.402 A 2.765 2.765 0 0 0 75.576 66.754 Q 73.839 67.639 71.1 70.747 A 58.266 58.266 0 0 0 69.7 72.402 Q 64.8 78.402 59.7 84.402 Q 56.021 88.731 53.07 89.936 A 5.737 5.737 0 0 1 50.9 90.402 A 6.317 6.317 0 0 1 48.122 89.808 Q 46.768 89.155 45.794 87.785 A 8.535 8.535 0 0 1 45.3 87.002 A 15.515 15.515 0 0 1 45.271 86.949 A 14.918 14.918 0 0 1 43.4 79.602 Z" id="0" vector-effect="non-scaling-stroke"/><path class="path" d="M 176.893 63.028 A 10.541 10.541 0 0 0 175.8 63.802 Q 168.4 69.802 160.9 69.802 A 21.134 21.134 0 0 1 159.745 69.771 A 15.587 15.587 0 0 1 148.7 64.702 A 29.916 29.916 0 0 1 145.532 60.641 A 22.16 22.16 0 0 1 142.6 54.002 Q 141.2 48.402 141.2 43.702 Q 141.2 40.572 140.49 39.437 A 1.227 1.227 0 0 0 139.6 38.802 Q 136.2 38.802 132.8 48.202 Q 129.4 57.602 129.4 67.702 A 40.689 40.689 0 0 0 129.4 67.825 Q 129.412 71.703 130.164 75.032 A 22.844 22.844 0 0 0 134.4 84.202 Q 139.4 90.602 148.4 90.602 Q 154.939 90.602 163.273 85.376 A 70.951 70.951 0 0 0 169.8 80.702 A 109.56 109.56 0 0 0 172.834 78.194 Q 182.2 70.147 182.2 65.802 A 7.791 7.791 0 0 0 182.164 65.03 Q 181.882 62.202 179.4 62.202 A 3.221 3.221 0 0 0 179.349 62.202 Q 178.22 62.22 176.893 63.028 Z M 131.229 12.744 A 11.796 11.796 0 0 0 134.3 20.202 A 12.156 12.156 0 0 0 134.619 20.538 A 9.958 9.958 0 0 0 142 23.602 A 12.148 12.148 0 0 0 142.463 23.593 A 9.958 9.958 0 0 0 149.7 20.202 A 11.502 11.502 0 0 0 152.119 16.138 A 13.322 13.322 0 0 0 152.8 11.802 A 15.423 15.423 0 0 0 152.772 10.86 A 11.796 11.796 0 0 0 149.7 3.402 A 12.156 12.156 0 0 0 149.381 3.065 A 9.958 9.958 0 0 0 142 0.002 A 12.148 12.148 0 0 0 141.537 0.011 A 9.958 9.958 0 0 0 134.3 3.402 A 11.502 11.502 0 0 0 131.881 7.466 A 13.322 13.322 0 0 0 131.2 11.802 A 15.423 15.423 0 0 0 131.229 12.744 Z" id="1" vector-effect="non-scaling-stroke"/><path class="path" d="M 178.387 63.347 A 5.497 5.497 0 0 0 178 65.202 A 5.1 5.1 0 0 1 181.862 66.969 Q 184.491 69.807 185.6 77.202 A 20.221 20.221 0 0 0 186.53 80.594 A 23.481 23.481 0 0 0 189.2 85.702 Q 192 89.802 196.8 90.402 A 7.344 7.344 0 0 0 198.559 90.18 Q 202.499 89.21 207.3 84.002 A 178.213 178.213 0 0 0 210.524 80.41 A 152.888 152.888 0 0 0 217.9 71.302 Q 222.6 65.002 224.2 65.002 A 0.442 0.442 0 0 1 224.371 65.037 Q 225.107 65.342 225.788 68.294 A 37.408 37.408 0 0 1 226.1 69.802 Q 227 74.602 228.9 79.702 Q 230.028 82.73 232.284 85.652 A 33.915 33.915 0 0 0 235.9 89.602 A 17.268 17.268 0 0 0 241.478 93.164 A 18.845 18.845 0 0 0 248.4 94.402 A 21.215 21.215 0 0 0 257.082 92.498 A 29.256 29.256 0 0 0 262.9 89.002 A 27.768 27.768 0 0 0 263.873 88.228 Q 265.904 86.534 267.261 84.709 A 13.002 13.002 0 0 0 270 76.802 A 11.24 11.24 0 0 0 269.995 76.467 Q 269.951 74.986 269.507 74.138 A 2.002 2.002 0 0 0 267.6 73.002 A 2.95 2.95 0 0 0 267.203 73.032 Q 266.443 73.136 265.2 73.602 A 9.028 9.028 0 0 1 263.605 74.034 A 11.461 11.461 0 0 1 261.6 74.202 Q 251.4 74.202 241.454 57.311 A 114.725 114.725 0 0 1 236.4 47.602 A 5.492 5.492 0 0 0 236.368 47.538 Q 235.161 45.202 232.3 45.202 A 5.678 5.678 0 0 0 229.939 45.741 Q 228.187 46.536 226.4 48.502 Q 223.4 51.802 221.6 55.902 Q 219.8 60.002 216.9 63.302 A 11.784 11.784 0 0 1 215.352 64.784 A 7.979 7.979 0 0 1 210.3 66.602 A 8.562 8.562 0 0 1 209.651 66.578 Q 206.43 66.333 204.7 63.602 Q 202.8 60.602 202.4 57.002 Q 202 53.402 200.1 50.402 A 6.089 6.089 0 0 0 196.739 47.754 A 7.974 7.974 0 0 0 194.3 47.402 Q 191.253 47.402 186.803 51.857 A 48.002 48.002 0 0 0 184.2 54.702 Q 179.549 60.178 178.387 63.347 Z" id="2" vector-effect="non-scaling-stroke"/><path class="path" d="M 316.2 56.802 L 315.4 62.402 A 9.519 9.519 0 0 0 316.127 65.96 Q 316.66 67.287 317.582 68.653 A 19.958 19.958 0 0 0 318.5 69.902 A 12.011 12.011 0 0 0 320.748 72.112 A 8.311 8.311 0 0 0 325.8 73.802 A 11.955 11.955 0 0 0 327.988 73.613 Q 329.734 73.288 331 72.402 A 153.478 153.478 0 0 0 332.767 71.18 Q 335.641 69.161 336.5 68.302 Q 337.6 67.202 340.1 67.202 Q 342.6 67.202 342.6 69.002 A 2.654 2.654 0 0 1 342.27 70.054 Q 340.838 72.989 333.2 81.602 A 28.819 28.819 0 0 1 330.682 84.097 Q 328.116 86.368 324.4 88.802 A 31.378 31.378 0 0 1 320.902 90.806 Q 319.077 91.69 317.401 92.139 A 12.76 12.76 0 0 1 314.1 92.602 A 21.617 21.617 0 0 1 311.622 92.47 Q 309.06 92.173 307.474 91.211 A 6.266 6.266 0 0 1 307.3 91.102 A 7.437 7.437 0 0 1 304.887 88.482 A 10.652 10.652 0 0 1 304 86.402 A 30.639 30.639 0 0 1 303.223 82.497 Q 302.8 79.402 302.8 75.602 Q 302.8 74.88 301.986 74.81 A 2.155 2.155 0 0 0 301.8 74.802 Q 300.858 74.802 297.612 78.348 A 72.089 72.089 0 0 0 297.2 78.802 A 82.468 82.468 0 0 1 292.506 83.322 Q 284.587 90.317 279.23 90.401 A 8.281 8.281 0 0 1 279.1 90.402 A 21.167 21.167 0 0 1 274.928 90.017 Q 270.99 89.224 268.5 86.802 A 12.079 12.079 0 0 1 264.827 78.55 A 16.206 16.206 0 0 1 264.8 77.602 A 36.518 36.518 0 0 1 269.99 58.919 A 44.547 44.547 0 0 1 270 58.902 A 52.461 52.461 0 0 1 276.286 50.214 A 42.77 42.77 0 0 1 282.4 44.602 A 118.683 118.683 0 0 1 289.728 39.578 Q 296.789 35.15 302.083 33.615 A 18.53 18.53 0 0 1 307.2 32.802 Q 320.251 33.197 320.398 42 A 12.077 12.077 0 0 1 320.4 42.202 A 7.896 7.896 0 0 1 319.514 45.77 Q 318.825 47.146 317.6 48.502 A 15.367 15.367 0 0 1 316.183 49.894 Q 314.181 51.602 312.4 51.602 Q 310.074 51.602 306.057 47.656 A 40.224 40.224 0 0 1 305.8 47.402 Q 301.6 43.202 296.6 43.202 A 9.804 9.804 0 0 0 289.135 46.44 A 12.851 12.851 0 0 0 288.4 47.302 Q 285.2 51.402 285.2 57.802 A 14.127 14.127 0 0 0 285.765 61.981 Q 287.188 66.574 292.198 67.776 A 17.199 17.199 0 0 0 296.2 68.202 A 14.48 14.48 0 0 0 299.528 67.839 A 10.457 10.457 0 0 0 303.5 66.002 A 16.414 16.414 0 0 0 305.576 64.148 Q 306.683 62.965 307.363 61.681 A 9.76 9.76 0 0 0 307.6 61.202 A 36.151 36.151 0 0 1 308.854 58.891 Q 311.525 54.402 313.8 54.402 A 3.455 3.455 0 0 1 314.75 54.521 Q 315.815 54.826 316.098 55.913 A 3.536 3.536 0 0 1 316.2 56.802 Z" id="3" vector-effect="non-scaling-stroke"/></g><g class ="animation" id="svgGroup" stroke-linecap="round" fill-rule="evenodd" font-size="9pt" stroke="#000" stroke-width="0.25mm" fill="none" style="stroke:#000;stroke-width:0.25mm;fill:#000"><path d="M 43.4 79.602 L 43.6 76.402 A 60.924 60.924 0 0 0 43.554 73.924 Q 43.343 68.768 42.172 67.954 A 0.811 0.811 0 0 0 41.7 67.802 Q 39.8 67.802 36.5 72.802 A 215.576 215.576 0 0 1 29.873 82.265 A 235.796 235.796 0 0 1 29.4 82.902 Q 26.512 86.779 23.97 87.708 A 4.552 4.552 0 0 1 22.4 88.002 A 1.779 1.779 0 0 1 21.434 87.639 Q 19.718 86.477 16.9 81.602 Q 13.2 75.202 8.8 68.902 Q 5.734 64.512 3.153 63.181 A 4.699 4.699 0 0 0 1 62.602 Q 0.207 62.602 0.043 61.972 A 1.473 1.473 0 0 1 0 61.602 A 4.916 4.916 0 0 1 0.418 59.816 Q 1.781 56.433 7.6 50.002 A 81.136 81.136 0 0 1 10.51 46.936 Q 14.711 42.756 17.235 41.851 A 3.789 3.789 0 0 1 18.5 41.602 Q 21.221 41.602 26.118 48.673 A 84.952 84.952 0 0 1 28.3 52.002 A 124.835 124.835 0 0 0 30.497 55.404 Q 35.195 62.402 37 62.402 Q 39.2 62.402 45.9 54.202 A 57.657 57.657 0 0 1 48.602 51.107 Q 52.839 46.62 55.729 46.077 A 4.17 4.17 0 0 1 56.5 46.002 A 7.732 7.732 0 0 1 58.945 46.368 A 6.126 6.126 0 0 1 62.3 49.102 Q 64.2 52.202 64.5 55.802 Q 64.8 59.402 65.2 62.502 A 12.489 12.489 0 0 0 65.374 63.536 Q 65.82 65.602 66.8 65.602 A 2.239 2.239 0 0 0 67.866 65.197 Q 70.148 63.802 75.493 57.595 A 189.407 189.407 0 0 0 77.1 55.702 A 90.354 90.354 0 0 1 80.054 52.337 Q 86.113 45.802 89.2 45.802 Q 92.625 45.802 99.775 54.182 A 120.617 120.617 0 0 1 103.2 58.402 A 38.542 38.542 0 0 0 109.279 64.772 A 46.513 46.513 0 0 0 112.3 67.102 A 34.628 34.628 0 0 0 115.088 68.899 Q 117.968 70.55 120.217 70.905 A 7.595 7.595 0 0 0 121.4 71.002 Q 125 71.002 128.4 69.802 A 26.742 26.742 0 0 1 130.619 69.119 Q 131.716 68.836 132.684 68.708 A 11.583 11.583 0 0 1 134.2 68.602 A 5.326 5.326 0 0 1 135.046 68.663 Q 136.529 68.903 136.597 70.086 A 2.02 2.02 0 0 1 136.6 70.202 A 1.703 1.703 0 0 1 136.156 71.35 A 2.464 2.464 0 0 1 135.9 71.602 A 24.995 24.995 0 0 0 135.567 71.894 Q 134.694 72.671 132.5 74.702 Q 130.196 76.836 128.62 78.168 A 52.428 52.428 0 0 1 128.1 78.602 A 316.147 316.147 0 0 1 127.163 79.371 Q 126.106 80.234 124.676 81.39 A 1193.39 1193.39 0 0 1 123.3 82.502 Q 120.2 85.002 118 86.402 Q 112 90.002 106.7 90.002 A 11.626 11.626 0 0 1 102.399 89.111 Q 99.094 87.796 95.395 84.544 A 41.911 41.911 0 0 1 94.9 84.102 Q 88.4 78.202 83.7 72.302 A 52.013 52.013 0 0 0 82.026 70.297 Q 78.588 66.402 76.8 66.402 A 2.765 2.765 0 0 0 75.576 66.754 Q 73.839 67.639 71.1 70.747 A 58.266 58.266 0 0 0 69.7 72.402 Q 64.8 78.402 59.7 84.402 Q 56.021 88.731 53.07 89.936 A 5.737 5.737 0 0 1 50.9 90.402 A 6.317 6.317 0 0 1 48.122 89.808 Q 46.768 89.155 45.794 87.785 A 8.535 8.535 0 0 1 45.3 87.002 A 15.515 15.515 0 0 1 45.271 86.949 A 14.918 14.918 0 0 1 43.4 79.602 Z" id="0" vector-effect="non-scaling-stroke"/><path d="M 176.893 63.028 A 10.541 10.541 0 0 0 175.8 63.802 Q 168.4 69.802 160.9 69.802 A 21.134 21.134 0 0 1 159.745 69.771 A 15.587 15.587 0 0 1 148.7 64.702 A 29.916 29.916 0 0 1 145.532 60.641 A 22.16 22.16 0 0 1 142.6 54.002 Q 141.2 48.402 141.2 43.702 Q 141.2 40.572 140.49 39.437 A 1.227 1.227 0 0 0 139.6 38.802 Q 136.2 38.802 132.8 48.202 Q 129.4 57.602 129.4 67.702 A 40.689 40.689 0 0 0 129.4 67.825 Q 129.412 71.703 130.164 75.032 A 22.844 22.844 0 0 0 134.4 84.202 Q 139.4 90.602 148.4 90.602 Q 154.939 90.602 163.273 85.376 A 70.951 70.951 0 0 0 169.8 80.702 A 109.56 109.56 0 0 0 172.834 78.194 Q 182.2 70.147 182.2 65.802 A 7.791 7.791 0 0 0 182.164 65.03 Q 181.882 62.202 179.4 62.202 A 3.221 3.221 0 0 0 179.349 62.202 Q 178.22 62.22 176.893 63.028 Z M 131.229 12.744 A 11.796 11.796 0 0 0 134.3 20.202 A 12.156 12.156 0 0 0 134.619 20.538 A 9.958 9.958 0 0 0 142 23.602 A 12.148 12.148 0 0 0 142.463 23.593 A 9.958 9.958 0 0 0 149.7 20.202 A 11.502 11.502 0 0 0 152.119 16.138 A 13.322 13.322 0 0 0 152.8 11.802 A 15.423 15.423 0 0 0 152.772 10.86 A 11.796 11.796 0 0 0 149.7 3.402 A 12.156 12.156 0 0 0 149.381 3.065 A 9.958 9.958 0 0 0 142 0.002 A 12.148 12.148 0 0 0 141.537 0.011 A 9.958 9.958 0 0 0 134.3 3.402 A 11.502 11.502 0 0 0 131.881 7.466 A 13.322 13.322 0 0 0 131.2 11.802 A 15.423 15.423 0 0 0 131.229 12.744 Z" id="1" vector-effect="non-scaling-stroke"/><path d="M 178.387 63.347 A 5.497 5.497 0 0 0 178 65.202 A 5.1 5.1 0 0 1 181.862 66.969 Q 184.491 69.807 185.6 77.202 A 20.221 20.221 0 0 0 186.53 80.594 A 23.481 23.481 0 0 0 189.2 85.702 Q 192 89.802 196.8 90.402 A 7.344 7.344 0 0 0 198.559 90.18 Q 202.499 89.21 207.3 84.002 A 178.213 178.213 0 0 0 210.524 80.41 A 152.888 152.888 0 0 0 217.9 71.302 Q 222.6 65.002 224.2 65.002 A 0.442 0.442 0 0 1 224.371 65.037 Q 225.107 65.342 225.788 68.294 A 37.408 37.408 0 0 1 226.1 69.802 Q 227 74.602 228.9 79.702 Q 230.028 82.73 232.284 85.652 A 33.915 33.915 0 0 0 235.9 89.602 A 17.268 17.268 0 0 0 241.478 93.164 A 18.845 18.845 0 0 0 248.4 94.402 A 21.215 21.215 0 0 0 257.082 92.498 A 29.256 29.256 0 0 0 262.9 89.002 A 27.768 27.768 0 0 0 263.873 88.228 Q 265.904 86.534 267.261 84.709 A 13.002 13.002 0 0 0 270 76.802 A 11.24 11.24 0 0 0 269.995 76.467 Q 269.951 74.986 269.507 74.138 A 2.002 2.002 0 0 0 267.6 73.002 A 2.95 2.95 0 0 0 267.203 73.032 Q 266.443 73.136 265.2 73.602 A 9.028 9.028 0 0 1 263.605 74.034 A 11.461 11.461 0 0 1 261.6 74.202 Q 251.4 74.202 241.454 57.311 A 114.725 114.725 0 0 1 236.4 47.602 A 5.492 5.492 0 0 0 236.368 47.538 Q 235.161 45.202 232.3 45.202 A 5.678 5.678 0 0 0 229.939 45.741 Q 228.187 46.536 226.4 48.502 Q 223.4 51.802 221.6 55.902 Q 219.8 60.002 216.9 63.302 A 11.784 11.784 0 0 1 215.352 64.784 A 7.979 7.979 0 0 1 210.3 66.602 A 8.562 8.562 0 0 1 209.651 66.578 Q 206.43 66.333 204.7 63.602 Q 202.8 60.602 202.4 57.002 Q 202 53.402 200.1 50.402 A 6.089 6.089 0 0 0 196.739 47.754 A 7.974 7.974 0 0 0 194.3 47.402 Q 191.253 47.402 186.803 51.857 A 48.002 48.002 0 0 0 184.2 54.702 Q 179.549 60.178 178.387 63.347 Z" id="2" vector-effect="non-scaling-stroke"/><path d="M 316.2 56.802 L 315.4 62.402 A 9.519 9.519 0 0 0 316.127 65.96 Q 316.66 67.287 317.582 68.653 A 19.958 19.958 0 0 0 318.5 69.902 A 12.011 12.011 0 0 0 320.748 72.112 A 8.311 8.311 0 0 0 325.8 73.802 A 11.955 11.955 0 0 0 327.988 73.613 Q 329.734 73.288 331 72.402 A 153.478 153.478 0 0 0 332.767 71.18 Q 335.641 69.161 336.5 68.302 Q 337.6 67.202 340.1 67.202 Q 342.6 67.202 342.6 69.002 A 2.654 2.654 0 0 1 342.27 70.054 Q 340.838 72.989 333.2 81.602 A 28.819 28.819 0 0 1 330.682 84.097 Q 328.116 86.368 324.4 88.802 A 31.378 31.378 0 0 1 320.902 90.806 Q 319.077 91.69 317.401 92.139 A 12.76 12.76 0 0 1 314.1 92.602 A 21.617 21.617 0 0 1 311.622 92.47 Q 309.06 92.173 307.474 91.211 A 6.266 6.266 0 0 1 307.3 91.102 A 7.437 7.437 0 0 1 304.887 88.482 A 10.652 10.652 0 0 1 304 86.402 A 30.639 30.639 0 0 1 303.223 82.497 Q 302.8 79.402 302.8 75.602 Q 302.8 74.88 301.986 74.81 A 2.155 2.155 0 0 0 301.8 74.802 Q 300.858 74.802 297.612 78.348 A 72.089 72.089 0 0 0 297.2 78.802 A 82.468 82.468 0 0 1 292.506 83.322 Q 284.587 90.317 279.23 90.401 A 8.281 8.281 0 0 1 279.1 90.402 A 21.167 21.167 0 0 1 274.928 90.017 Q 270.99 89.224 268.5 86.802 A 12.079 12.079 0 0 1 264.827 78.55 A 16.206 16.206 0 0 1 264.8 77.602 A 36.518 36.518 0 0 1 269.99 58.919 A 44.547 44.547 0 0 1 270 58.902 A 52.461 52.461 0 0 1 276.286 50.214 A 42.77 42.77 0 0 1 282.4 44.602 A 118.683 118.683 0 0 1 289.728 39.578 Q 296.789 35.15 302.083 33.615 A 18.53 18.53 0 0 1 307.2 32.802 Q 320.251 33.197 320.398 42 A 12.077 12.077 0 0 1 320.4 42.202 A 7.896 7.896 0 0 1 319.514 45.77 Q 318.825 47.146 317.6 48.502 A 15.367 15.367 0 0 1 316.183 49.894 Q 314.181 51.602 312.4 51.602 Q 310.074 51.602 306.057 47.656 A 40.224 40.224 0 0 1 305.8 47.402 Q 301.6 43.202 296.6 43.202 A 9.804 9.804 0 0 0 289.135 46.44 A 12.851 12.851 0 0 0 288.4 47.302 Q 285.2 51.402 285.2 57.802 A 14.127 14.127 0 0 0 285.765 61.981 Q 287.188 66.574 292.198 67.776 A 17.199 17.199 0 0 0 296.2 68.202 A 14.48 14.48 0 0 0 299.528 67.839 A 10.457 10.457 0 0 0 303.5 66.002 A 16.414 16.414 0 0 0 305.576 64.148 Q 306.683 62.965 307.363 61.681 A 9.76 9.76 0 0 0 307.6 61.202 A 36.151 36.151 0 0 1 308.854 58.891 Q 311.525 54.402 313.8 54.402 A 3.455 3.455 0 0 1 314.75 54.521 Q 315.815 54.826 316.098 55.913 A 3.536 3.536 0 0 1 316.2 56.802 Z" id="3" vector-effect="non-scaling-stroke"/></g></svg>